<svg xmlns="http://www.w3.org/2000/svg" xmlns:xlink="http://www.w3.org/1999/xlink" viewBox="11445.527 -3691.757 35 25">
  <defs>
    <style>
      .cls-1 {
        fill: #ebd197;
      }

      .cls-1, .cls-3 {
        stroke: #6c7679;
      }

      .cls-2 {
        clip-path: url(#clip-path);
      }

      .cls-3, .cls-5 {
        fill: none;
      }

      .cls-4 {
        stroke: none;
      }
    </style>
    <clipPath id="clip-path">
      <rect id="Rectangle_13866" data-name="Rectangle 13866" class="cls-1" width="35" height="25" rx="2"/>
    </clipPath>
  </defs>
  <g id="Group_11188" data-name="Group 11188" transform="translate(11445.527 -3691.757)">
    <g id="Mask_Group_274" data-name="Mask Group 274" class="cls-2">
      <g id="Group_11186" data-name="Group 11186" transform="translate(-1.4 -5.405)">
        <g id="Rectangle_13856" data-name="Rectangle 13856" class="cls-1" transform="translate(1.4 5.405)">
          <rect class="cls-4" width="35" height="25" rx="5"/>
          <rect class="cls-5" x="0.5" y="0.5" width="34" height="24" rx="4.5"/>
        </g>
        <g id="Rectangle_13857" data-name="Rectangle 13857" class="cls-1" transform="translate(0 18.919)">
          <path class="cls-4" d="M3.243,0h7.07A6.486,6.486,0,0,1,16.8,6.486v0a9.73,9.73,0,0,1-9.73,9.73H3.243A3.243,3.243,0,0,1,0,12.973V3.243A3.243,3.243,0,0,1,3.243,0Z"/>
          <path class="cls-5" d="M3.353.5h6.924A6.023,6.023,0,0,1,16.3,6.523v0a9.193,9.193,0,0,1-9.193,9.193H3.353A2.853,2.853,0,0,1,.5,12.863V3.353A2.853,2.853,0,0,1,3.353.5Z"/>
        </g>
        <g id="Rectangle_13858" data-name="Rectangle 13858" class="cls-1" transform="translate(37.8 16.216) rotate(180)">
          <path class="cls-4" d="M3.243,0h7.07A6.486,6.486,0,0,1,16.8,6.486v0a9.73,9.73,0,0,1-9.73,9.73H3.243A3.243,3.243,0,0,1,0,12.973V3.243A3.243,3.243,0,0,1,3.243,0Z"/>
          <path class="cls-5" d="M3.353.5h6.924A6.023,6.023,0,0,1,16.3,6.523v0a9.193,9.193,0,0,1-9.193,9.193H3.353A2.853,2.853,0,0,1,.5,12.863V3.353A2.853,2.853,0,0,1,3.353.5Z"/>
        </g>
        <g id="Rectangle_13859" data-name="Rectangle 13859" class="cls-1">
          <path class="cls-4" d="M3.243,0H7.07A9.73,9.73,0,0,1,16.8,9.73v0a6.486,6.486,0,0,1-6.486,6.486H3.243A3.243,3.243,0,0,1,0,12.973V3.243A3.243,3.243,0,0,1,3.243,0Z"/>
          <path class="cls-5" d="M3.353.5H7.107A9.193,9.193,0,0,1,16.3,9.693v0a6.023,6.023,0,0,1-6.023,6.023H3.353A2.853,2.853,0,0,1,.5,12.863V3.353A2.853,2.853,0,0,1,3.353.5Z"/>
        </g>
        <g id="Rectangle_13860" data-name="Rectangle 13860" class="cls-1" transform="translate(37.8 35.135) rotate(180)">
          <path class="cls-4" d="M3.243,0H7.07A9.73,9.73,0,0,1,16.8,9.73v0a6.486,6.486,0,0,1-6.486,6.486H3.243A3.243,3.243,0,0,1,0,12.973V3.243A3.243,3.243,0,0,1,3.243,0Z"/>
          <path class="cls-5" d="M3.353.5H7.107A9.193,9.193,0,0,1,16.3,9.693v0a6.023,6.023,0,0,1-6.023,6.023H3.353A2.853,2.853,0,0,1,.5,12.863V3.353A2.853,2.853,0,0,1,3.353.5Z"/>
        </g>
        <line id="Line_737" data-name="Line 737" class="cls-3" y2="3.378" transform="translate(11.55 15.878)"/>
        <line id="Line_738" data-name="Line 738" class="cls-3" y2="3.378" transform="translate(26.25 15.878)"/>
      </g>
      <g id="Group_11187" data-name="Group 11187" transform="translate(-1.4 -5.405)">
        <g id="Rectangle_13861" data-name="Rectangle 13861" class="cls-1" transform="translate(1.4 5.405)">
          <rect class="cls-4" width="35" height="25" rx="5"/>
          <rect class="cls-5" x="0.5" y="0.5" width="34" height="24" rx="4.5"/>
        </g>
        <g id="Rectangle_13862" data-name="Rectangle 13862" class="cls-1" transform="translate(0 18.919)">
          <path class="cls-4" d="M3.243,0h7.07A6.486,6.486,0,0,1,16.8,6.486v0a9.73,9.73,0,0,1-9.73,9.73H3.243A3.243,3.243,0,0,1,0,12.973V3.243A3.243,3.243,0,0,1,3.243,0Z"/>
          <path class="cls-5" d="M3.353.5h6.924A6.023,6.023,0,0,1,16.3,6.523v0a9.193,9.193,0,0,1-9.193,9.193H3.353A2.853,2.853,0,0,1,.5,12.863V3.353A2.853,2.853,0,0,1,3.353.5Z"/>
        </g>
        <g id="Rectangle_13863" data-name="Rectangle 13863" class="cls-1" transform="translate(37.8 16.216) rotate(180)">
          <path class="cls-4" d="M3.243,0h7.07A6.486,6.486,0,0,1,16.8,6.486v0a9.73,9.73,0,0,1-9.73,9.73H3.243A3.243,3.243,0,0,1,0,12.973V3.243A3.243,3.243,0,0,1,3.243,0Z"/>
          <path class="cls-5" d="M3.353.5h6.924A6.023,6.023,0,0,1,16.3,6.523v0a9.193,9.193,0,0,1-9.193,9.193H3.353A2.853,2.853,0,0,1,.5,12.863V3.353A2.853,2.853,0,0,1,3.353.5Z"/>
        </g>
        <g id="Rectangle_13864" data-name="Rectangle 13864" class="cls-1">
          <rect class="cls-4" width="16.8" height="16.216" rx="3"/>
          <rect class="cls-5" x="0.5" y="0.5" width="15.8" height="15.216" rx="2.5"/>
        </g>
        <g id="Rectangle_13865" data-name="Rectangle 13865" class="cls-1" transform="translate(37.8 35.135) rotate(180)">
          <rect class="cls-4" width="16.8" height="16.216" rx="3"/>
          <rect class="cls-5" x="0.5" y="0.5" width="15.8" height="15.216" rx="2.5"/>
        </g>
        <line id="Line_739" data-name="Line 739" class="cls-3" y2="3.378" transform="translate(11.55 15.878)"/>
        <line id="Line_740" data-name="Line 740" class="cls-3" y2="3.378" transform="translate(26.25 15.878)"/>
      </g>
    </g>
    <g id="Rectangle_13867" data-name="Rectangle 13867" class="cls-3">
      <rect class="cls-4" width="35" height="25" rx="2"/>
      <rect class="cls-5" x="0.5" y="0.5" width="34" height="24" rx="1.5"/>
    </g>
  </g>
</svg>
